<svg width="37" height="37" viewBox="0 0 37 37" fill="none" xmlns="http://www.w3.org/2000/svg">
<g id="Group 12">
<path id="Vector" d="M32.5023 5.04006L7.6825 29.9504L5.66463 28.4406C4.47225 27.5385 3.5 25.5869 3.5 24.0772V9.18257C3.5 7.10211 5.07761 4.81912 7.00376 4.08268L17.0931 0.289976C18.1387 -0.0966586 19.8631 -0.0966586 20.9087 0.289976L30.9981 4.08268C31.5301 4.2852 32.0437 4.6166 32.5023 5.04006ZM34.5 24.0754C34.5 25.5851 33.5278 27.5367 32.3354 28.4388L22.246 36.0058C20.4483 37.3314 17.5499 37.3314 15.7521 36.0058L12.5236 33.5939C11.6247 32.9311 11.533 31.6055 12.3218 30.8138L31.3631 11.7031C32.5188 10.5432 34.5 11.3717 34.5 13.0102V24.0754Z" fill="white"/>
<path id="Vector_2" d="M36.0814 0.405079C35.5414 -0.135026 34.6593 -0.135026 34.1192 0.405079L0.905051 33.6396C0.364983 34.1797 0.364983 35.0618 0.905051 35.6019C1.03321 35.7297 1.18549 35.8306 1.35302 35.899C1.52056 35.9673 1.70001 36.0016 1.88094 35.9999C2.06187 35.9983 2.24065 35.9606 2.4069 35.8892C2.57314 35.8178 2.72352 35.714 2.84929 35.5839L36.0814 2.34946C36.6395 1.80935 36.6395 0.945184 36.0814 0.405079Z" fill="white"/>
</g>
</svg>
