<svg width="84" height="93" viewBox="0 0 84 93" fill="none" xmlns="http://www.w3.org/2000/svg">
<g id="Pdf icon">
<g id="Pdf Icon">
<path id="Vector" d="M83.5251 3.89937V89.1006C83.5251 90.1348 83.1143 91.1266 82.383 91.8579C81.6518 92.5892 80.66 93 79.6258 93H18.6396C17.6054 93 16.6136 92.5892 15.8823 91.8579C15.1511 91.1266 14.7402 90.1348 14.7402 89.1006V29.1283L36.1868 0H79.6258C80.66 0 81.6518 0.410826 82.383 1.1421C83.1143 1.87337 83.5251 2.86519 83.5251 3.89937Z" fill="#EDEEEF"/>
<path id="Vector_2" d="M36.186 0.0390625V25.0535C36.186 26.0877 35.7751 27.0795 35.0439 27.8108C34.3126 28.5421 33.3208 28.9529 32.2866 28.9529H14.8369L36.186 0.0390625Z" fill="#CFD0D1"/>
<path id="Vector_3" d="M57.1648 53.2654H3.89937C1.74581 53.2654 0 55.0112 0 57.1648V76.7396C0 78.8932 1.74581 80.639 3.89937 80.639H57.1648C59.3184 80.639 61.0642 78.8932 61.0642 76.7396V57.1648C61.0642 55.0112 59.3184 53.2654 57.1648 53.2654Z" fill="#FF3717"/>
</g>
<path id="Vector_4" d="M19.809 68.5314V72.7427H16.4165V61.1811H21.0957C22.0065 61.1319 22.9172 61.2782 23.7668 61.61C24.3715 61.8838 24.8806 62.3319 25.2291 62.8968C25.5817 63.4854 25.764 64.1604 25.7555 64.8465C25.7784 65.3443 25.6926 65.8411 25.504 66.3024C25.3155 66.7636 25.0287 67.1783 24.6637 67.5175C23.851 68.2245 22.7953 68.588 21.7196 68.5314H19.809ZM19.809 66.0553H20.9398C21.9341 66.0553 22.4215 65.6653 22.4215 64.905C22.4215 64.1446 21.9731 63.8131 21.0568 63.8131H19.809V66.0553ZM27.0228 72.7427V61.1811H31.2926C32.0708 61.1225 32.8518 61.2472 33.573 61.5452C34.2942 61.8432 34.9355 62.3061 35.4454 62.8968C36.3641 64.024 36.8544 65.4398 36.8297 66.8936C36.912 68.4381 36.3792 69.9523 35.3479 71.105C34.8584 71.6478 34.2551 72.0761 33.5811 72.3591C32.9071 72.6422 32.179 72.7732 31.4486 72.7427H27.0228ZM30.4152 70.0716H31.2926C31.5844 70.0666 31.8696 69.9846 32.1195 69.834C32.3695 69.6834 32.5752 69.4694 32.7159 69.2138C33.1243 68.5112 33.3206 67.7054 33.2813 66.8936C33.2966 66.1349 33.1223 65.3844 32.7744 64.71C32.6377 64.4355 32.4259 64.2054 32.1636 64.0466C31.9012 63.8879 31.5992 63.8069 31.2926 63.8131H30.4152V70.0716ZM45.1549 68.4144H41.5674V72.7427H38.2725V61.1811H46.2467V63.9301H41.5674V65.8798H45.1549V68.4144Z" fill="#EDEEEF"/>
</g>
</svg>
